<svg xmlns="http://www.w3.org/2000/svg" xmlns:xlink="http://www.w3.org/1999/xlink" version="1.1" width="256" height="256" viewBox="0 0 256 256" xml:space="preserve">
<g style="stroke: none; stroke-width: 0; stroke-dasharray: none; stroke-linecap: butt; stroke-linejoin: miter; stroke-miterlimit: 10; fill: none; fill-rule: nonzero; opacity: 1;" transform="translate(1.4065934065934016 1.4065934065934016) scale(2.81 2.81)">
	<path d="M 45 90 L 45 90 C 20.147 90 0 69.853 0 45 v 0 C 0 20.147 20.147 0 45 0 h 0 c 24.853 0 45 20.147 45 45 v 0 C 90 69.853 69.853 90 45 90 z" style="stroke: none; stroke-width: 1; stroke-dasharray: none; stroke-linecap: butt; stroke-linejoin: miter; stroke-miterlimit: 10; fill: rgb(255,252,0); fill-rule: nonzero; opacity: 1;" transform=" matrix(1 0 0 1 0 0) " stroke-linecap="round"/>
	<path d="M 45.395 74.414 c -0.178 0 -0.347 -0.006 -0.476 -0.013 c -0.102 0.009 -0.208 0.013 -0.314 0.013 c -3.731 0 -6.226 -1.764 -8.427 -3.321 c -1.578 -1.115 -3.066 -2.167 -4.809 -2.457 c -0.856 -0.142 -1.708 -0.214 -2.531 -0.214 c -1.483 0 -2.655 0.23 -3.51 0.397 c -0.526 0.103 -0.98 0.191 -1.331 0.191 c -0.367 0 -0.814 -0.081 -1 -0.717 c -0.147 -0.501 -0.253 -0.987 -0.355 -1.454 c -0.255 -1.169 -0.441 -1.882 -0.878 -1.949 c -4.679 -0.722 -7.444 -1.786 -7.995 -3.074 c -0.056 -0.129 -0.089 -0.266 -0.097 -0.406 c -0.021 -0.383 0.249 -0.721 0.628 -0.783 c 3.716 -0.612 7.02 -2.576 9.822 -5.84 c 2.17 -2.527 3.235 -4.941 3.35 -5.207 c 0.005 -0.012 0.011 -0.024 0.017 -0.036 c 0.54 -1.095 0.647 -2.042 0.32 -2.813 c -0.603 -1.422 -2.6 -2.055 -3.921 -2.475 c -0.329 -0.104 -0.639 -0.202 -0.887 -0.301 c -1.171 -0.463 -3.097 -1.44 -2.841 -2.789 c 0.187 -0.984 1.488 -1.669 2.54 -1.669 c 0.292 0 0.551 0.051 0.769 0.153 c 1.188 0.557 2.257 0.839 3.177 0.839 c 1.143 0 1.696 -0.435 1.829 -0.559 c -0.035 -0.624 -0.072 -1.249 -0.113 -1.873 c -0.268 -4.269 -0.603 -9.583 0.756 -12.629 c 4.068 -9.12 12.694 -9.83 15.24 -9.83 c 0.42 -0.004 0.841 -0.007 1.261 -0.012 c 2.553 0 11.198 0.71 15.268 9.836 c 1.359 3.049 1.024 8.367 0.755 12.64 l -0.013 0.205 c -0.037 0.58 -0.071 1.13 -0.1 1.662 c 0.126 0.116 0.631 0.515 1.659 0.555 c 0.876 -0.034 1.884 -0.314 2.993 -0.834 c 0.343 -0.161 0.723 -0.194 0.98 -0.194 c 0.39 0 0.786 0.076 1.116 0.214 l 0.018 0.007 c 0.941 0.334 1.558 1.002 1.571 1.703 c 0.012 0.654 -0.474 1.631 -2.864 2.575 c -0.245 0.097 -0.557 0.196 -0.887 0.301 c -1.322 0.42 -3.318 1.053 -3.921 2.474 c -0.328 0.771 -0.22 1.717 0.32 2.812 c 0.006 0.012 0.011 0.024 0.017 0.037 c 0.166 0.39 4.191 9.567 13.171 11.047 c 0.379 0.063 0.649 0.4 0.628 0.783 c -0.009 0.141 -0.042 0.28 -0.099 0.41 c -0.547 1.281 -3.312 2.343 -7.992 3.066 c -0.439 0.068 -0.624 0.778 -0.877 1.94 c -0.105 0.48 -0.211 0.951 -0.357 1.445 c -0.136 0.465 -0.439 0.692 -0.926 0.692 h -0.073 c -0.317 0 -0.766 -0.058 -1.332 -0.168 c -0.989 -0.193 -2.099 -0.372 -3.51 -0.372 c -0.823 0 -1.674 0.072 -2.532 0.214 c -1.742 0.29 -3.229 1.341 -4.805 2.454 C 51.621 72.65 49.125 74.414 45.395 74.414" style="stroke: none; stroke-width: 1; stroke-dasharray: none; stroke-linecap: butt; stroke-linejoin: miter; stroke-miterlimit: 10; fill: rgb(255,255,255); fill-rule: nonzero; opacity: 1;" transform=" matrix(1 0 0 1 0 0) " stroke-linecap="round"/>
	<path d="M 75.891 59.471 c -8.349 -1.376 -12.129 -9.986 -12.29 -10.36 l -0.039 -0.086 c -0.383 -0.777 -0.481 -1.396 -0.292 -1.838 c 0.393 -0.925 2.148 -1.483 3.197 -1.816 c 0.358 -0.114 0.697 -0.222 0.963 -0.328 c 2.418 -0.955 3.631 -2.195 3.605 -3.687 c -0.025 -1.193 -0.94 -2.282 -2.308 -2.766 c -0.47 -0.196 -1.026 -0.304 -1.566 -0.304 c -0.377 0 -0.941 0.053 -1.476 0.305 c -0.953 0.446 -1.813 0.696 -2.451 0.724 c -0.2 -0.008 -0.363 -0.034 -0.494 -0.067 l 0.069 -1.117 c 0.277 -4.4 0.621 -9.876 -0.855 -13.186 c -4.357 -9.77 -13.611 -10.529 -16.348 -10.529 l -1.249 0.012 c -2.725 0 -11.954 0.759 -16.308 10.523 c -1.476 3.307 -1.132 8.78 -0.855 13.182 c 0.024 0.372 0.047 0.745 0.069 1.117 c -0.157 0.039 -0.36 0.069 -0.618 0.069 c -0.747 0 -1.649 -0.245 -2.68 -0.728 c -0.875 -0.411 -2.135 -0.321 -3.208 0.227 c -0.958 0.489 -1.579 1.246 -1.747 2.13 c -0.217 1.141 0.224 2.778 3.559 4.095 c 0.27 0.107 0.607 0.215 0.966 0.329 c 1.048 0.333 2.803 0.89 3.196 1.816 c 0.186 0.437 0.085 1.072 -0.295 1.845 l -0.04 0.086 c -0.108 0.251 -1.115 2.522 -3.162 4.907 c -2.616 3.049 -5.686 4.881 -9.124 5.447 c -0.97 0.159 -1.66 1.022 -1.606 2.008 c 0.017 0.278 0.081 0.547 0.19 0.796 c 0.732 1.712 3.446 2.894 8.531 3.713 c 0.069 0.213 0.16 0.58 0.275 1.103 c 0.106 0.49 0.217 0.996 0.374 1.531 c 0.294 1.004 1.048 1.557 2.123 1.557 c 0.468 0 0.979 -0.1 1.585 -0.219 c 0.803 -0.156 1.904 -0.369 3.257 -0.369 c 0.758 0 1.545 0.067 2.339 0.198 c 1.48 0.246 2.862 1.223 4.326 2.257 c 2.342 1.658 4.997 3.536 9.103 3.536 c 0.12 0 0.239 -0.004 0.307 -0.011 c 0.137 0.005 0.306 0.011 0.483 0.011 c 4.106 0 6.763 -1.879 9.11 -3.54 c 1.461 -1.032 2.84 -2.006 4.316 -2.253 c 0.797 -0.131 1.586 -0.198 2.341 -0.198 c 1.304 0 2.35 0.168 3.286 0.35 c 0.652 0.128 1.161 0.19 1.629 0.19 c 1.001 0 1.768 -0.573 2.047 -1.532 c 0.156 -0.531 0.269 -1.025 0.379 -1.529 c 0.112 -0.512 0.202 -0.876 0.27 -1.087 c 5.09 -0.819 7.802 -1.996 8.526 -3.693 c 0.115 -0.26 0.181 -0.535 0.197 -0.815 C 77.553 60.494 76.863 59.632 75.891 59.471 z M 66.155 68.247 l -0.14 -0.422 c 0.034 -0.018 0.069 -0.03 0.101 -0.033 L 66.155 68.247 C 66.155 68.247 66.155 68.247 66.155 68.247 z M 28.884 46.272 c -0.813 -1.917 -3.119 -2.648 -4.713 -3.154 c -0.274 -0.087 -0.532 -0.169 -0.742 -0.251 c -1.685 -0.666 -2.151 -1.329 -2.122 -1.483 c 0.051 -0.27 0.723 -0.717 1.391 -0.717 c 0.158 0 0.237 0.026 0.273 0.043 c 1.346 0.63 2.581 0.949 3.673 0.949 c 1.521 0 2.342 -0.609 2.624 -0.871 l 0.404 -0.373 l -0.03 -0.549 c -0.034 -0.628 -0.072 -1.256 -0.113 -1.888 c -0.261 -4.139 -0.585 -9.289 0.657 -12.073 c 3.781 -8.477 11.808 -9.136 14.182 -9.136 l 1.251 -0.012 c 2.375 0 10.416 0.659 14.199 9.142 c 1.241 2.784 0.917 7.939 0.656 12.088 l -0.013 0.206 c -0.037 0.584 -0.071 1.137 -0.1 1.675 l -0.028 0.55 l 0.405 0.373 c 0.326 0.3 1.081 0.811 2.495 0.863 c 1.034 -0.04 2.192 -0.358 3.444 -0.944 c 0.243 -0.113 0.76 -0.122 1.228 0.07 c 0.548 0.194 0.789 0.507 0.792 0.622 c 0 0.007 -0.072 0.655 -2.124 1.466 c -0.22 0.087 -0.499 0.174 -0.812 0.274 c -1.524 0.484 -3.828 1.215 -4.643 3.132 c -0.467 1.097 -0.35 2.372 0.338 3.767 c 0.173 0.404 4.235 9.691 13.4 11.648 c -0.578 0.465 -2.222 1.335 -6.795 2.041 c -1.266 0.196 -1.558 1.544 -1.841 2.846 c -0.088 0.398 -0.175 0.789 -0.295 1.217 c -0.166 -0.007 -0.48 -0.038 -1.026 -0.145 c -1.05 -0.204 -2.229 -0.393 -3.734 -0.393 c -0.885 0 -1.801 0.077 -2.723 0.23 c -2.007 0.334 -3.599 1.459 -5.288 2.653 c -2.06 1.457 -4.395 3.109 -7.756 3.109 c -0.156 0 -0.304 -0.005 -0.425 -0.012 l -0.049 -0.002 l -0.105 0.005 c -0.069 0.006 -0.14 0.008 -0.211 0.008 c -3.362 0 -5.696 -1.651 -7.763 -3.113 c -1.686 -1.191 -3.278 -2.316 -5.282 -2.648 c -0.919 -0.153 -1.835 -0.231 -2.722 -0.231 c -1.581 0 -2.819 0.241 -3.735 0.419 c -0.339 0.066 -0.716 0.14 -1.022 0.161 c -0.118 -0.418 -0.207 -0.833 -0.297 -1.244 c -0.286 -1.307 -0.582 -2.659 -1.843 -2.856 c -4.63 -0.713 -6.26 -1.604 -6.82 -2.07 c 3.737 -0.767 7.061 -2.822 9.887 -6.114 c 2.277 -2.652 3.416 -5.225 3.528 -5.489 C 29.233 48.646 29.35 47.371 28.884 46.272 z" style="stroke: none; stroke-width: 1; stroke-dasharray: none; stroke-linecap: butt; stroke-linejoin: miter; stroke-miterlimit: 10; fill: rgb(0,0,0); fill-rule: nonzero; opacity: 1;" transform=" matrix(1 0 0 1 0 0) " stroke-linecap="round"/>
</g>
</svg>